<?xml version="1.0" standalone="no"?>
<!DOCTYPE svg PUBLIC "-//W3C//DTD SVG 20010904//EN"
 "http://www.w3.org/TR/2001/REC-SVG-20010904/DTD/svg10.dtd">
<svg version="1.0" xmlns="http://www.w3.org/2000/svg"
 width="1024.000000pt" height="1536.000000pt" viewBox="0 0 1024.000000 1536.000000"
 preserveAspectRatio="xMidYMid meet">

<g transform="translate(0.000000,1536.000000) scale(0.100000,-0.100000)"
fill="#2d6e4a" stroke="none">
<path d="M4972 12646 c-99 -25 -200 -83 -280 -162 -51 -50 -72 -78 -68 -89 3
-9 2 -14 -3 -11 -14 9 -56 -70 -80 -148 -26 -84 -28 -233 -6 -320 62 -239 279
-419 532 -442 226 -21 478 122 576 327 50 105 61 150 61 264 1 262 -155 476
-414 567 -71 26 -244 33 -318 14z"/>
<path d="M2530 12064 c-196 -51 -361 -221 -400 -411 -19 -89 -8 -234 23 -316
116 -303 474 -446 758 -302 27 14 47 30 44 35 -3 6 1 7 10 4 20 -8 155 126
185 186 88 173 91 355 9 520 -72 144 -199 243 -364 285 -74 19 -192 18 -265
-1z m57 -10 c-3 -3 -12 -4 -19 -1 -8 3 -5 6 6 6 11 1 17 -2 13 -5z m180 0 c-3
-3 -12 -4 -19 -1 -8 3 -5 6 6 6 11 1 17 -2 13 -5z m-437 -118 c0 -2 -7 -7 -16
-10 -8 -3 -12 -2 -9 4 6 10 25 14 25 6z m711 -13 c13 -16 12 -17 -3 -4 -17 13
-22 21 -14 21 2 0 10 -8 17 -17z m-904 -420 c-2 -16 -4 -3 -4 27 0 30 2 43 4
28 2 -16 2 -40 0 -55z m551 -510 c-10 -2 -26 -2 -35 0 -10 3 -2 5 17 5 19 0
27 -2 18 -5z"/>
<path d="M7411 12064 c-78 -21 -187 -81 -241 -134 -107 -105 -159 -219 -167
-370 -9 -168 40 -294 162 -415 113 -114 234 -165 390 -165 235 1 459 175 520
405 23 86 21 224 -4 305 -58 187 -225 341 -409 379 -72 15 -186 13 -251 -5z"/>
<path d="M4065 11365 c-157 -24 -355 -89 -507 -166 -47 -24 -58 -33 -47 -41
11 -7 9 -8 -6 -4 -14 4 -64 -22 -165 -85 -298 -186 -460 -239 -735 -239 -161
0 -268 -13 -382 -46 -88 -25 -253 -97 -253 -109 0 -4 7 -4 16 -1 9 3 12 2 9
-5 -4 -5 -15 -7 -25 -4 -49 16 -311 -232 -424 -402 -170 -257 -250 -515 -249
-813 0 -336 108 -636 255 -711 36 -19 40 -19 73 -3 l34 16 0 202 c0 479 97
780 342 1057 32 36 55 70 51 74 -4 5 -1 5 6 1 8 -5 22 0 34 11 18 15 20 15 16
2 -19 -52 -60 -244 -77 -364 -30 -199 -45 -517 -36 -716 l7 -166 187 -6 c102
-3 227 -13 276 -21 84 -15 223 -48 256 -61 12 -4 14 23 11 192 -4 220 7 350
45 523 53 244 148 459 288 655 60 84 71 110 23 55 -16 -19 -26 -26 -20 -15 11
23 42 52 57 56 6 1 52 46 103 100 51 54 135 132 187 175 52 42 93 80 90 84 -3
4 3 14 13 21 15 13 16 12 3 -3 -7 -10 -9 -18 -3 -18 15 0 33 26 24 35 -4 5 -1
5 6 1 16 -9 74 32 66 46 -4 7 -2 8 4 4 6 -4 47 16 90 43 183 114 395 203 519
216 l58 6 77 -58 c135 -102 247 -204 398 -360 l147 -153 166 0 167 0 182 184
c101 101 218 211 261 245 89 69 92 70 248 46 353 -53 740 -298 1019 -646 214
-267 347 -590 385 -937 4 -35 12 -65 19 -67 6 -1 54 -8 106 -15 224 -28 497
-120 672 -226 l60 -37 -7 -51 c-3 -28 -10 -55 -14 -59 -5 -5 -4 15 2 44 10 49
9 53 -12 71 -26 20 -46 24 -35 6 4 -7 3 -8 -5 -4 -6 4 -9 11 -6 16 8 12 -53
43 -67 34 -6 -4 -8 -3 -5 3 8 13 -150 86 -165 77 -6 -4 -8 -3 -5 3 11 18 -223
82 -418 115 -412 69 -837 -3 -1265 -215 -184 -91 -526 -309 -515 -327 3 -5
-15 -23 -40 -40 -25 -17 -45 -36 -45 -41 0 -6 -4 -8 -9 -5 -5 4 -22 -4 -38
-16 -51 -41 -92 -68 -103 -68 -6 0 -8 -6 -4 -12 4 -7 4 -10 -1 -6 -4 4 -17 3
-29 -3 -17 -8 -16 -6 4 10 14 11 30 21 37 21 6 0 13 3 15 8 2 4 49 38 106 76
56 38 100 71 98 73 -2 3 -59 -32 -125 -77 -322 -215 -574 -338 -831 -406 -58
-15 -106 -28 -108 -29 -1 -2 2 -24 8 -51 7 -27 13 -58 16 -69 21 -109 39 -145
65 -129 8 4 9 3 5 -4 -36 -59 -90 99 -131 388 -22 155 -31 449 -16 520 17 81
19 83 72 64 61 -22 192 -29 275 -15 39 7 105 30 154 53 109 52 229 168 278
269 112 231 29 512 -181 609 -80 38 -190 56 -255 43 l-49 -10 -13 69 c-52 295
-350 449 -612 317 -155 -78 -252 -259 -234 -435 l6 -62 -37 9 c-190 44 -404
-54 -485 -222 -125 -259 19 -552 322 -655 40 -14 83 -19 160 -18 91 0 117 5
195 31 104 36 104 36 130 -51 26 -85 16 -418 -16 -538 -5 -20 -21 -50 -34 -66
l-24 -29 22 -21 c66 -61 357 -229 529 -306 327 -146 593 -207 903 -209 237 -1
421 31 503 88 26 18 46 38 44 45 -1 6 2 9 8 5 14 -9 42 14 33 28 -3 6 -1 7 5
3 6 -3 59 26 118 66 167 114 194 132 277 185 42 27 74 53 70 58 -5 4 -3 6 2 2
14 -8 131 59 127 73 -1 6 2 9 7 5 14 -8 273 119 264 130 -5 4 -2 5 5 1 12 -7
104 19 128 36 17 12 260 68 291 67 15 0 -10 -9 -57 -19 -319 -66 -598 -198
-990 -467 -128 -89 -346 -241 -405 -284 -303 -219 -668 -372 -1096 -458 -85
-17 -264 -47 -399 -65 -453 -64 -721 -137 -985 -269 -144 -71 -395 -262 -380
-287 3 -5 0 -12 -6 -16 -8 -4 -9 -3 -5 4 4 7 3 12 -1 12 -9 0 -37 -40 -31 -45
15 -13 133 -82 218 -128 253 -134 625 -257 940 -311 228 -39 387 -50 650 -43
247 6 393 22 600 64 472 95 990 351 1405 694 117 97 395 373 478 475 57 72 72
98 40 73 -16 -13 -17 -12 -4 3 7 10 17 15 21 13 9 -5 60 55 60 70 0 4 -8 1
-17 -6 -16 -13 -17 -12 -4 4 8 9 16 15 19 12 7 -7 32 15 32 27 0 6 -8 4 -17
-3 -16 -13 -17 -12 -4 3 7 10 17 15 22 13 4 -3 31 28 59 70 55 81 71 113 52
101 -8 -5 -10 -2 -5 9 4 12 8 13 13 5 9 -15 66 80 160 268 325 654 405 1358
231 2050 -16 61 -26 112 -23 112 3 0 26 -17 51 -37 177 -145 296 -336 358
-572 35 -132 43 -393 19 -561 -30 -201 -92 -414 -183 -629 -53 -123 -58 -155
-27 -159 16 -2 38 17 91 85 260 328 417 640 484 963 21 100 24 142 24 320 -1
177 -4 218 -23 299 -113 469 -435 842 -848 980 -119 40 -244 59 -439 66 -195
8 -275 18 -385 51 -105 32 -226 91 -393 195 -342 213 -583 295 -900 306 -228
8 -339 -8 -657 -97 -64 -18 -94 -21 -200 -17 -104 5 -146 11 -250 41 -240 70
-554 95 -765 61z m-395 -171 c-35 -7 -98 -9 -94 -2 3 5 29 7 57 7 29 -1 45 -3
37 -5z m67 -10 c-3 -3 -12 -4 -19 -1 -8 3 -5 6 6 6 11 1 17 -2 13 -5z m113
-29 c19 -7 28 -13 20 -13 -8 0 -31 6 -50 13 -19 7 -28 13 -20 13 8 0 31 -6 50
-13z m-390 -29 c0 -2 -8 -10 -17 -17 -16 -13 -17 -12 -4 4 13 16 21 21 21 13z
m510 -16 c8 -5 11 -10 5 -10 -5 0 -17 5 -25 10 -8 5 -10 10 -5 10 6 0 17 -5
25 -10z m80 -35 c14 -8 21 -14 15 -14 -5 0 -21 6 -35 14 -14 8 -20 14 -15 14
6 0 21 -6 35 -14z m80 -45 c8 -5 11 -10 5 -10 -5 0 -21 10 -35 21 -24 20 -5
13 30 -11z m75 -45 c19 -15 18 -15 -12 -1 -17 9 -35 21 -39 27 -8 13 21 -1 51
-26z m55 -31 c0 -2 -7 -4 -15 -4 -8 0 -15 4 -15 10 0 5 7 7 15 4 8 -4 15 -8
15 -10z m-1903 -160 c-3 -3 -12 -4 -19 -1 -8 3 -5 6 6 6 11 1 17 -2 13 -5z
m-197 -48 c0 -2 -7 -7 -16 -10 -8 -3 -12 -2 -9 4 6 10 25 14 25 6z m-125 -56
c-3 -5 -12 -10 -18 -10 -7 0 -6 4 3 10 19 12 23 12 15 0z m1205 -324 c0 -2 -8
-10 -17 -17 -16 -13 -17 -12 -4 4 13 16 21 21 21 13z m-1762 -251 c-6 -14 -13
-23 -15 -21 -5 5 15 46 22 46 3 0 -1 -11 -7 -25z m552 -49 c0 -2 -8 -10 -17
-17 -16 -13 -17 -12 -4 4 13 16 21 21 21 13z m27 -288 c-3 -7 -5 -2 -5 12 0
14 2 19 5 13 2 -7 2 -19 0 -25z m-740 -230 c-3 -8 -6 -5 -6 6 -1 11 2 17 5 13
3 -3 4 -12 1 -19z m710 -15 c-3 -10 -5 -4 -5 12 0 17 2 24 5 18 2 -7 2 -21 0
-30z m720 -130 c-3 -10 -5 -4 -5 12 0 17 2 24 5 18 2 -7 2 -21 0 -30z m-730
-25 c-2 -13 -4 -5 -4 17 -1 22 1 32 4 23 2 -10 2 -28 0 -40z m-690 -120 c-3
-8 -6 -5 -6 6 -1 11 2 17 5 13 3 -3 4 -12 1 -19z m320 -100 c-3 -7 -5 -2 -5
12 0 14 2 19 5 13 2 -7 2 -19 0 -25z m5622 28 c-2 -2 -71 -7 -154 -11 -82 -4
-153 -9 -157 -11 -5 -3 -8 -1 -8 5 0 6 32 12 73 14 121 5 251 7 246 3z m59
-13 c-10 -2 -26 -2 -35 0 -10 3 -2 5 17 5 19 0 27 -2 18 -5z m-400 -10 c-10
-2 -26 -2 -35 0 -10 3 -2 5 17 5 19 0 27 -2 18 -5z m-73 -10 c-11 -2 -32 -8
-47 -13 -16 -5 -28 -5 -28 0 0 9 31 17 70 17 19 1 20 0 5 -4z m-108 -19 c-3
-3 -12 -4 -19 -1 -8 3 -5 6 6 6 11 1 17 -2 13 -5z m-101 -25 c-85 -24 -109
-37 -99 -52 5 -8 2 -8 -9 1 -15 12 -24 11 -65 -5 -10 -3 -22 -7 -28 -9 -5 -1
-19 -5 -30 -9 -12 -4 -10 0 6 9 32 19 247 85 274 85 11 0 -11 -9 -49 -20z
m-257 -83 c-9 -8 -153 -65 -156 -62 -4 4 137 65 151 66 5 0 7 -2 5 -4z m-4372
-53 c-3 -10 -5 -4 -5 12 0 17 2 24 5 18 2 -7 2 -21 0 -30z m4188 -29 c-11 -9
-37 -22 -57 -31 -21 -8 -35 -19 -32 -24 3 -5 2 -8 -3 -7 -13 4 -73 -24 -68
-32 3 -4 -3 -7 -13 -6 -9 0 -16 -4 -15 -11 2 -7 -4 -10 -12 -7 -8 4 -15 1 -15
-6 0 -6 -5 -8 -10 -5 -6 3 -13 -1 -16 -9 -3 -9 -12 -16 -20 -16 -8 0 -14 -4
-14 -10 0 -5 -3 -9 -7 -9 -22 4 -33 -2 -27 -13 4 -7 4 -10 -1 -6 -4 4 -23 -2
-42 -13 -18 -11 -33 -18 -33 -16 0 12 381 238 400 237 3 -1 -4 -8 -15 -16z
m-3912 -81 c-7 -2 -19 -2 -25 0 -7 3 -2 5 12 5 14 0 19 -2 13 -5z m170 -20
c-7 -2 -19 -2 -25 0 -7 3 -2 5 12 5 14 0 19 -2 13 -5z m114 -19 c-3 -3 -12 -4
-19 -1 -8 3 -5 6 6 6 11 1 17 -2 13 -5z m137 -33 c4 -5 -3 -7 -14 -4 -23 6
-26 13 -6 13 8 0 17 -4 20 -9z m4953 -13 c-3 -8 -6 -5 -6 6 -1 11 2 17 5 13 3
-3 4 -12 1 -19z m478 -134 c-14 -65 -28 -131 -32 -146 -6 -31 -18 -36 -27 -12
-3 8 -2 13 3 10 10 -7 34 78 58 204 9 52 19 88 20 79 2 -8 -8 -69 -22 -135z
m-6520 106 c-3 -5 -12 -10 -18 -10 -7 0 -6 4 3 10 19 12 23 12 15 0z m4191
-42 c4 -6 3 -8 -3 -5 -5 3 -24 -7 -41 -23 -18 -16 -32 -26 -32 -23 0 3 -12 -3
-27 -12 -44 -28 -11 3 43 40 58 40 51 38 60 23z m2275 -279 c-5 -13 -10 -19
-10 -12 -1 15 10 45 15 40 3 -2 0 -15 -5 -28z m-72 -25 c33 -4 61 -11 61 -15
0 -5 -7 -6 -15 -3 -8 3 -104 9 -212 13 l-198 8 151 1 c83 1 179 -1 213 -4z
m-2684 -14 c4 -6 3 -10 -2 -9 -13 4 -63 -23 -58 -31 2 -4 -1 -7 -8 -7 -7 0
-21 -4 -32 -8 -11 -4 5 9 35 29 64 41 57 39 65 26z m2298 3 c-13 -2 -33 -2
-45 0 -13 2 -3 4 22 4 25 0 35 -2 23 -4z m-2508 -113 c-16 -11 -34 -20 -40
-20 -12 0 46 38 60 39 6 1 -3 -8 -20 -19z m-88 -41 c-46 -24 -198 -81 -204
-76 -2 3 36 19 84 36 48 18 99 38 113 46 14 8 30 14 35 14 6 0 -7 -9 -28 -20z
m-217 -83 c0 -5 -104 -36 -117 -35 -8 1 95 37 110 38 4 1 7 -1 7 -3z m-73 -52
c-3 -3 -12 -4 -19 -1 -8 3 -5 6 6 6 11 1 17 -2 13 -5z m23 -284 c8 -5 11 -10
5 -10 -5 0 -17 5 -25 10 -8 5 -10 10 -5 10 6 0 17 -5 25 -10z m70 -30 c19 -11
31 -19 25 -19 -5 0 -26 8 -45 19 -19 11 -30 19 -25 19 6 0 26 -8 45 -19z m103
-33 c4 3 7 1 7 -5 0 -17 -16 -15 -31 6 -12 15 -12 16 2 5 9 -7 19 -10 22 -6z
m92 -37 c7 -12 -2 -12 -30 0 -19 8 -19 9 2 9 12 1 25 -3 28 -9z m60 -20 c13
-5 14 -9 5 -9 -8 0 -24 4 -35 9 -13 5 -14 9 -5 9 8 0 24 -4 35 -9z m52 -16
c-3 -3 -12 -4 -19 -1 -8 3 -5 6 6 6 11 1 17 -2 13 -5z m979 -3 c-6 -9 -46 -22
-46 -15 0 3 10 9 23 14 29 11 29 11 23 1z m-939 -7 c-3 -3 -12 -4 -19 -1 -8 3
-5 6 6 6 11 1 17 -2 13 -5z m68 -14 l20 -9 -20 0 c-11 0 -29 4 -40 9 l-20 9
20 0 c11 0 29 -4 40 -9z m805 0 c-8 -5 -19 -10 -25 -10 -5 0 -3 5 5 10 8 5 20
10 25 10 6 0 3 -5 -5 -10z m-747 -17 c-7 -2 -19 -2 -25 0 -7 3 -2 5 12 5 14 0
19 -2 13 -5z m700 0 c-7 -2 -19 -2 -25 0 -7 3 -2 5 12 5 14 0 19 -2 13 -5z
m-625 -10 c-10 -2 -26 -2 -35 0 -10 3 -2 5 17 5 19 0 27 -2 18 -5z m575 0 c-7
-2 -19 -2 -25 0 -7 3 -2 5 12 5 14 0 19 -2 13 -5z m-505 -10 c-10 -2 -26 -2
-35 0 -10 3 -2 5 17 5 19 0 27 -2 18 -5z m402 -3 c-30 -5 -129 -8 -220 -7
l-165 1 175 6 c96 3 195 6 220 6 43 1 43 1 -10 -6z m1452 -537 c-60 -69 -126
-132 -246 -238 l-89 -78 -156 6 c-106 3 -203 14 -301 32 -207 38 -384 43 -515
16 -129 -27 -220 -62 -407 -160 -247 -128 -351 -158 -667 -191 -102 -11 -213
-24 -245 -30 -201 -38 -380 -129 -582 -295 l-30 -25 -128 40 c-70 22 -134 43
-142 48 -11 6 2 19 48 52 35 24 115 82 178 129 299 221 501 300 850 331 245
22 366 53 518 136 205 112 354 172 497 200 131 26 377 24 560 -5 250 -39 319
-44 439 -32 139 13 366 71 433 110 37 22 33 9 -15 -46z m-412 -367 c0 -2 -8
-10 -17 -17 -16 -13 -17 -12 -4 4 13 16 21 21 21 13z m-40 -30 c0 -2 -8 -10
-17 -17 -16 -13 -17 -12 -4 4 13 16 21 21 21 13z m-40 -30 c0 -2 -8 -10 -17
-17 -16 -13 -17 -12 -4 4 13 16 21 21 21 13z m-3490 -30 c0 -2 -8 -10 -17 -17
-16 -13 -17 -12 -4 4 13 16 21 21 21 13z m3220 -151 c0 -2 -10 -9 -22 -15 -22
-11 -22 -10 -4 4 21 17 26 19 26 11z m-70 -40 c0 -2 -10 -9 -22 -15 -22 -11
-22 -10 -4 4 21 17 26 19 26 11z m-2975 -103 c-3 -3 -11 0 -18 7 -9 10 -8 11
6 5 10 -3 15 -9 12 -12z m2730 -22 c-3 -5 -12 -10 -18 -10 -7 0 -6 4 3 10 19
12 23 12 15 0z m-538 -196 c-3 -3 -12 -4 -19 -1 -8 3 -5 6 6 6 11 1 17 -2 13
-5z m-420 -70 c-3 -3 -12 -4 -19 -1 -8 3 -5 6 6 6 11 1 17 -2 13 -5z m-480
-20 c-3 -3 -12 -4 -19 -1 -8 3 -5 6 6 6 11 1 17 -2 13 -5z m101 -1 c-10 -2
-28 -2 -40 0 -13 2 -5 4 17 4 22 1 32 -1 23 -4z m99 1 c-3 -3 -12 -4 -19 -1
-8 3 -5 6 6 6 11 1 17 -2 13 -5z"/>
<path d="M1945 8600 c-121 -9 -275 -33 -345 -54 -52 -16 -51 -8 -10 -139 148
-477 489 -1009 892 -1392 144 -136 366 -315 392 -315 6 0 49 32 96 71 123 102
303 221 422 277 401 192 890 287 1582 310 160 5 220 10 223 19 3 7 -6 17 -19
23 -374 158 -501 218 -693 325 -75 42 -238 138 -363 214 -284 172 -400 237
-566 316 -377 179 -734 289 -1067 329 -159 19 -404 27 -544 16z"/>
<path d="M3425 5645 c-14 -25 -23 -50 -20 -55 3 -6 21 -10 40 -10 28 0 40 8
68 43 55 68 55 67 -6 67 -55 0 -55 0 -82 -45z"/>
<path d="M955 5523 c-33 -11 -68 -35 -102 -69 -69 -68 -98 -156 -91 -277 9
-179 112 -302 261 -314 112 -9 200 34 258 125 l30 47 -47 22 -48 22 -38 -44
c-86 -98 -207 -80 -271 39 -33 62 -32 194 3 256 35 62 80 90 144 90 71 0 105
-22 152 -98 4 -8 94 43 94 54 0 30 -67 109 -112 132 -63 32 -163 39 -233 15z"/>
<path d="M1569 5527 c-99 -37 -178 -125 -200 -222 -17 -74 -7 -209 18 -266 26
-59 85 -124 137 -152 58 -31 193 -31 252 0 101 54 156 149 162 284 8 160 -51
284 -163 341 -50 26 -156 34 -206 15z m162 -130 c19 -12 45 -43 59 -67 34 -61
35 -193 2 -256 -58 -113 -175 -135 -251 -49 -37 42 -53 99 -53 182 1 77 26
137 76 181 47 41 114 45 167 9z"/>
<path d="M4205 5528 c-108 -38 -154 -149 -106 -253 26 -58 54 -79 161 -122 67
-27 99 -46 109 -64 33 -59 -27 -125 -104 -114 -44 7 -70 26 -92 68 -15 29 -21
30 -85 5 -47 -18 -30 -78 36 -136 126 -110 358 -36 381 123 16 100 -27 156
-157 204 -114 43 -131 53 -142 82 -24 68 36 120 114 99 28 -8 45 -20 61 -48
12 -20 23 -38 24 -39 5 -8 95 31 95 40 -1 28 -40 95 -69 120 -53 44 -154 60
-226 35z"/>
<path d="M7280 5525 c-89 -28 -148 -120 -133 -205 13 -78 44 -111 142 -150
146 -59 149 -61 160 -92 19 -55 -31 -108 -101 -108 -32 0 -75 28 -97 64 -21
33 -23 34 -59 24 -61 -16 -67 -28 -44 -80 36 -83 119 -124 232 -116 127 9 210
87 210 198 0 94 -49 143 -192 190 -89 29 -118 52 -118 96 0 49 29 74 85 74 48
0 71 -15 106 -69 l15 -24 47 18 c26 10 47 24 47 32 0 18 -27 72 -49 97 -46 53
-168 78 -251 51z"/>
<path d="M7859 5524 c-55 -16 -130 -80 -163 -137 -70 -122 -52 -328 38 -433
18 -21 55 -50 82 -64 42 -21 62 -25 144 -25 107 0 133 10 193 71 56 58 71 97
71 189 l1 80 -127 3 -128 3 0 -46 0 -45 65 0 c65 0 65 0 65 -29 0 -43 -40 -94
-85 -109 -50 -17 -119 -10 -154 15 -95 72 -107 284 -21 376 34 37 42 41 98 45
72 5 117 -17 147 -72 l18 -34 49 21 c51 21 56 32 34 76 -53 102 -200 154 -327
115z"/>
<path d="M2040 5200 l0 -330 60 0 60 0 0 213 0 212 135 -205 c74 -113 135
-208 135 -212 0 -5 25 -8 55 -8 l55 0 0 330 0 330 -60 0 -61 0 3 -215 c2 -118
2 -215 1 -215 -1 0 -63 97 -138 215 l-137 215 -54 0 -54 0 0 -330z"/>
<path d="M2660 5201 l0 -331 123 0 c81 0 141 5 175 15 74 22 143 81 178 151
26 54 29 68 29 169 0 100 -2 115 -27 161 -14 27 -45 67 -67 87 -67 61 -99 70
-263 75 l-148 4 0 -331z m249 208 c120 -25 179 -196 113 -325 -39 -77 -89
-104 -189 -104 l-53 0 0 220 0 220 40 0 c21 0 62 -5 89 -11z"/>
<path d="M3260 5200 l0 -330 195 0 195 0 0 55 0 54 -132 3 -133 3 -3 83 -3 82
116 0 115 0 0 53 0 52 -113 2 -112 1 0 78 0 77 130 1 130 1 3 58 3 57 -196 0
-195 0 0 -330z"/>
<path d="M4600 5293 c0 -131 5 -254 10 -274 17 -61 52 -102 109 -131 125 -64
270 -17 327 106 23 49 24 60 24 294 l0 242 -60 0 -60 0 0 -227 c0 -202 -3
-233 -19 -270 -16 -34 -27 -44 -60 -54 -56 -17 -109 4 -133 51 -16 30 -18 66
-18 268 l0 232 -60 0 -60 0 0 -237z"/>
<path d="M5197 5413 c1 -65 2 -214 3 -331 l0 -213 58 3 57 3 3 118 3 117 39 0
40 0 58 -117 58 -118 72 -3 c69 -3 82 2 63 24 -4 5 -36 63 -71 129 -39 75 -58
121 -51 123 27 9 75 59 92 97 37 80 18 166 -48 225 -56 49 -103 60 -255 60
l-123 0 2 -117z m264 -14 c51 -20 65 -99 25 -146 -21 -24 -32 -28 -95 -31
l-71 -4 0 100 0 101 58 -6 c31 -2 69 -9 83 -14z"/>
<path d="M6055 5488 c8 -24 53 -167 100 -318 48 -151 88 -281 90 -287 3 -9 26
-13 69 -13 l65 0 31 103 c18 56 49 158 70 227 54 176 90 302 90 318 0 10 -14
12 -56 10 l-56 -3 -54 -180 c-29 -99 -60 -207 -70 -240 -9 -33 -19 -55 -20
-50 -2 6 -22 71 -44 145 -23 74 -55 179 -71 233 l-30 97 -64 0 -64 0 14 -42z"/>
<path d="M6670 5200 l0 -330 195 0 195 0 0 55 0 55 -135 0 -135 0 0 85 0 85
115 0 115 0 0 50 0 50 -115 0 -115 0 0 80 0 79 133 3 132 3 3 58 3 57 -196 0
-195 0 0 -330z"/>
<path d="M8330 5201 l0 -331 59 0 58 0 6 88 c4 48 4 102 2 120 -5 32 -4 32 38
32 l42 0 63 -120 63 -120 70 0 71 0 -72 136 c-39 75 -70 137 -68 138 2 1 16 8
32 16 92 47 113 203 39 291 -52 61 -92 73 -255 77 l-148 4 0 -331z m280 190
c56 -40 47 -131 -16 -157 -19 -8 -58 -14 -88 -14 l-54 0 1 98 2 98 65 -4 c41
-2 74 -10 90 -21z"/>
<path d="M8890 5200 l0 -330 195 0 195 0 0 55 0 54 -132 3 -133 3 0 80 0 80
113 3 112 3 0 49 0 50 -92 0 c-141 0 -138 -2 -138 86 l0 74 118 1 c64 1 120 1
125 0 4 0 7 26 7 59 l0 60 -185 0 -185 0 0 -330z"/>
<path d="M3740 5165 l0 -55 120 0 120 0 0 55 0 55 -120 0 -120 0 0 -55z"/>
<path d="M5730 5166 c0 -30 4 -57 8 -60 5 -3 63 -2 130 1 l122 6 0 54 0 53
-130 0 -130 0 0 -54z"/>
<path d="M9411 4971 c-11 -11 -32 -58 -47 -105 -31 -93 -28 -118 14 -124 18
-3 32 12 72 75 54 84 70 134 50 158 -17 21 -66 19 -89 -4z"/>
<path d="M8824 4470 c-11 -4 -26 -21 -31 -37 -25 -67 -173 -544 -173 -558 0
-8 11 -20 25 -27 35 -16 49 0 78 85 43 123 82 227 136 356 28 68 51 132 51
142 0 18 -36 50 -55 48 -5 0 -19 -4 -31 -9z"/>
<path d="M2169 4439 c-19 -19 -21 -29 -15 -76 7 -58 1 -75 -46 -135 -24 -31
-27 -41 -18 -58 15 -28 24 -26 75 21 51 48 105 147 105 196 0 63 -59 94 -101
52z"/>
<path d="M3362 4452 c-7 -5 -32 -60 -55 -123 l-44 -114 -61 -3 c-57 -3 -62 -5
-68 -28 -9 -34 8 -49 52 -46 26 2 35 -1 32 -10 -3 -7 -22 -62 -43 -123 -40
-117 -67 -160 -138 -218 l-44 -36 5 73 c3 53 -1 98 -17 163 -25 108 -26 144
-5 184 8 17 13 37 10 45 -6 15 -63 19 -82 6 -6 -4 -41 -54 -78 -111 -152 -235
-246 -344 -329 -382 -51 -23 -134 -25 -164 -4 -23 16 -45 77 -37 99 3 7 30 18
62 24 192 40 317 186 257 301 -43 84 -200 58 -307 -51 -87 -89 -143 -247 -119
-336 15 -54 62 -107 108 -123 86 -28 220 6 314 81 l36 29 24 -37 c39 -60 81
-82 158 -82 78 0 167 37 242 100 l46 39 6 -42 c13 -95 111 -126 212 -68 64 37
99 70 170 154 57 70 64 91 32 111 -15 9 -22 5 -44 -24 -48 -61 -147 -162 -175
-176 -42 -22 -85 -18 -103 9 -13 21 -13 30 0 83 19 73 48 157 87 252 l30 72
78 0 c58 0 83 4 94 16 38 37 12 62 -71 66 l-61 3 34 84 c36 91 41 120 22 139
-14 14 -47 16 -66 4z m-822 -373 c0 -68 -93 -148 -202 -173 -26 -6 -26 -5 -18
24 20 69 114 174 163 182 31 6 57 -9 57 -33z m349 -110 c20 -110 19 -190 -2
-222 -15 -23 -25 -27 -62 -27 -39 0 -50 5 -85 40 -22 22 -40 43 -40 48 0 4 25
40 55 80 30 41 67 93 82 117 15 24 30 42 33 40 4 -2 12 -36 19 -76z"/>
<path d="M6623 4452 c-7 -4 -31 -55 -54 -112 -23 -58 -45 -110 -50 -116 -5 -6
-28 -10 -51 -9 -55 2 -78 -10 -78 -40 0 -30 30 -48 65 -39 14 3 25 4 25 2 0
-2 -23 -71 -50 -153 -70 -206 -69 -304 1 -340 69 -36 156 -8 245 79 32 31 59
56 61 56 2 0 3 -7 3 -16 0 -33 45 -96 82 -115 104 -53 234 5 310 139 17 29 37
52 46 52 10 0 43 11 75 24 31 13 57 23 57 22 0 0 -7 -19 -15 -41 -17 -47 -19
-138 -5 -166 14 -25 62 -49 97 -49 49 1 107 35 166 100 l57 63 0 -35 c0 -54
19 -97 51 -113 55 -29 104 -12 182 63 26 26 47 41 47 34 0 -23 62 -81 106 -98
58 -22 138 -14 213 22 77 38 234 191 229 225 -6 46 -35 32 -123 -57 -47 -47
-88 -85 -90 -82 -2 2 0 22 6 43 13 46 7 97 -23 217 -20 77 -21 92 -10 130 24
79 24 85 9 91 -35 13 -82 -12 -111 -60 -171 -277 -278 -419 -336 -443 -48 -20
-64 0 -56 71 5 57 22 105 90 270 38 92 38 116 0 125 -38 10 -53 -2 -80 -63
-14 -32 -50 -109 -81 -171 -84 -171 -194 -275 -240 -229 -15 14 -15 22 0 82 9
37 33 106 53 153 74 178 80 198 64 216 -8 11 -25 16 -44 14 -29 -3 -34 -10
-69 -93 -52 -121 -96 -166 -184 -185 -29 -7 -32 -6 -23 10 17 32 12 161 -8
200 -35 71 -144 95 -230 51 -85 -43 -128 -102 -216 -290 -6 -14 -43 -57 -81
-97 -75 -77 -121 -98 -164 -75 -41 22 -29 90 51 294 l51 127 83 0 c72 0 85 3
94 19 13 25 13 27 -6 45 -11 11 -35 16 -79 16 l-63 0 23 48 c43 90 61 151 49
170 -12 19 -52 27 -71 14z m484 -375 c16 -47 7 -127 -14 -127 -8 0 -30 15 -49
34 -27 27 -34 42 -34 73 0 48 15 65 55 61 25 -2 32 -9 42 -41z m-167 -54 c0
-33 42 -103 73 -122 18 -12 38 -25 46 -30 12 -7 10 -17 -12 -53 -36 -61 -78
-98 -120 -105 -30 -4 -40 -1 -63 22 -25 25 -26 31 -22 96 4 54 14 87 42 145
34 68 56 87 56 47z m1200 -186 c0 -52 -20 -101 -45 -111 -45 -17 -101 6 -135
54 l-22 31 27 37 c15 20 52 75 83 121 l57 83 17 -83 c9 -46 17 -106 18 -132z"/>
<path d="M5798 4213 c-8 -10 -28 -40 -44 -68 -61 -109 -224 -343 -259 -374
-80 -70 -115 -68 -115 7 0 62 18 121 80 267 49 113 50 118 33 137 -10 11 -27
18 -42 16 -23 -3 -37 -25 -113 -180 -73 -149 -97 -186 -147 -237 -47 -49 -65
-61 -90 -61 -20 0 -34 6 -38 17 -11 28 12 112 76 273 56 143 59 155 44 172
-22 25 -60 23 -77 -4 -8 -13 -27 -54 -42 -93 -33 -87 -83 -141 -147 -160 l-47
-14 7 27 c14 50 8 165 -10 199 -50 95 -209 87 -311 -15 -45 -44 -99 -131 -116
-187 -30 -96 -187 -246 -225 -215 -18 15 -13 37 46 186 57 143 66 211 35 259
-56 85 -178 31 -282 -124 -50 -75 -54 -74 -20 7 35 84 40 116 21 136 -19 19
-58 21 -73 4 -13 -16 -172 -489 -172 -511 0 -9 11 -24 25 -33 34 -22 72 -6 81
33 34 142 239 423 308 423 37 0 34 -31 -13 -138 -47 -107 -71 -184 -71 -229 0
-40 23 -88 45 -97 54 -21 141 16 223 94 44 42 53 48 58 33 26 -88 80 -133 158
-133 98 0 180 58 238 166 18 34 29 44 57 49 20 4 48 13 64 22 16 8 31 12 33
10 3 -3 0 -25 -7 -51 -18 -72 -7 -145 25 -173 66 -56 179 -6 274 121 l22 29 0
-52 c0 -141 102 -163 226 -49 35 32 48 39 52 28 10 -30 82 -89 118 -96 63 -12
149 2 205 32 57 31 163 133 212 203 23 33 28 48 20 60 -20 32 -41 22 -96 -46
-48 -60 -120 -133 -130 -133 -2 0 1 18 6 40 12 42 4 116 -27 257 -15 66 -15
76 0 113 9 22 14 47 10 55 -8 21 -69 19 -88 -2z m-1010 -118 c15 -32 15 -95 2
-130 -8 -22 -13 -24 -30 -15 -48 26 -79 127 -48 158 22 22 64 14 76 -13z
m-110 -172 c20 -21 46 -43 57 -49 18 -10 19 -13 5 -40 -49 -98 -123 -144 -174
-110 -38 25 -49 53 -42 110 9 76 22 116 57 171 l32 50 14 -47 c8 -29 28 -63
51 -85z m1126 -1 c16 -98 17 -122 6 -142 -23 -44 -42 -60 -74 -60 -39 1 -66
16 -100 57 l-26 31 82 116 c45 64 84 116 88 116 3 0 14 -53 24 -118z"/>
<path d="M1777 4186 c-88 -32 -182 -122 -225 -216 -17 -38 -26 -79 -29 -130
-4 -65 -2 -81 19 -120 34 -63 91 -94 173 -92 108 1 201 54 299 170 36 42 66
82 66 88 0 6 -10 19 -21 30 -21 19 -21 19 -48 -16 -142 -189 -290 -251 -359
-149 -45 65 -15 187 70 283 87 100 177 104 133 6 -15 -33 -16 -42 -5 -55 7 -9
24 -15 38 -13 55 7 89 106 58 166 -30 57 -92 75 -169 48z"/>
<path d="M8575 3755 c-25 -24 -33 -68 -17 -92 4 -7 19 -16 32 -21 29 -11 74 7
90 37 40 75 -45 137 -105 76z"/>
</g>
</svg>
